<svg width="170" height="50" viewBox="0 0 170 50" fill="none" xmlns="http://www.w3.org/2000/svg">
<path d="M58.3714 16.4733L43.5558 1.65769C42.499 0.600912 41.0693 0 39.5773 0C38.0647 0 36.6557 0.580191 35.5989 1.65769L26.6059 10.6506L21.3221 5.36676C20.2653 4.30999 18.8355 3.70908 17.3436 3.70908C15.831 3.70908 14.4219 4.28927 13.3652 5.36676L2.25865 16.4733C0.0622192 18.6697 0.0622192 22.2337 2.25865 24.4302L26.3366 48.5081C26.9168 49.0883 27.6213 49.5441 28.3879 49.8135C29.0096 50.0414 29.6519 50.145 30.315 50.145C31.8277 50.145 33.2367 49.5649 34.2935 48.4874L58.3714 24.4094C60.5678 22.2337 60.5678 18.6697 58.3714 16.4733ZM56.2578 22.2959L32.1592 46.3738C31.1439 47.3891 29.4862 47.3891 28.4501 46.3738L4.39293 22.2959C3.37759 21.2806 3.37759 19.6229 4.39293 18.5868L15.4994 7.48031C16.5148 6.46498 18.1725 6.46498 19.2085 7.48031L25.2383 13.5102L22.441 19.0634L26.6059 14.8985L37.7124 3.79196C38.7278 2.77663 40.3855 2.77663 41.4215 3.79196L56.2371 18.6075C57.2731 19.6229 57.2731 21.2806 56.2578 22.2959Z" fill="white"/>
<path d="M17.3435 9.32449L12.7642 13.9039L14.9606 16.1003L17.3435 13.7381L19.7264 16.1003L21.9229 13.9039L17.3435 9.32449Z" fill="white"/>
<path d="M39.5979 5.63614L30.9365 14.2976L32.7393 16.121L35.0186 13.8417L39.5979 17.1985L44.1773 13.8417L46.4359 16.121L48.2594 14.2976L39.5979 5.63614Z" fill="white"/>
<path d="M84.4801 29.051L80.8953 23.4356L80.0043 24.6374V29.051H75.1763V13.1164H80.0043V19.0841L84.19 13.1164H90.0955L84.0656 20.5139L90.3441 29.051H84.4801Z" fill="white"/>
<path d="M90.9658 22.5031V13.1164H95.856V22.3373C95.856 23.8707 96.8506 25.0932 98.8398 25.0932C100.808 25.0932 101.803 23.8707 101.803 22.3373V13.1164H106.714V22.4824C106.714 26.4401 104.227 29.3411 98.8606 29.3411C93.4731 29.3411 90.9658 26.4401 90.9658 22.5031Z" fill="white"/>
<path d="M109.055 29.051V13.1164H113.883V24.8446H119.934V29.051H109.055Z" fill="white"/>
<path d="M121.156 22.5031V13.1164H126.046V22.3373C126.046 23.8707 127.041 25.0932 129.03 25.0932C130.999 25.0932 131.993 23.8707 131.993 22.3373V13.1164H136.884V22.4824C136.884 26.4401 134.397 29.3411 129.03 29.3411C123.664 29.3411 121.156 26.4401 121.156 22.5031Z" fill="white"/>
<path d="M148.923 29.051L148.343 27.1861H142.603L142.023 29.051H136.552L142.437 13.1164H148.508L154.393 29.051H148.923ZM145.483 17.8409L143.908 22.9797H147.058L145.483 17.8409Z" fill="white"/>
<path d="M163.78 29.051L161.583 24.0365H159.843V29.051H155.015V13.1164H163.531C167.261 13.1164 169.271 15.603 169.271 18.5868C169.271 21.3427 167.675 22.7932 166.411 23.4148L169.312 29.051H163.78ZM164.36 18.5661C164.36 17.7165 163.593 17.3228 162.785 17.3228H159.843V19.8301H162.785C163.593 19.8301 164.36 19.4364 164.36 18.5661Z" fill="white"/>
<path d="M78.9679 37.4845L76.8337 34.8114L76.2742 35.4538V37.4845H75.1553V31.1438H76.2742V34.1691L78.7607 31.1438H80.149L77.5796 34.1484L80.3355 37.4845H78.9679Z" fill="white"/>
<path d="M81.1851 34.9979V31.1645H82.304V34.9772C82.304 35.9925 82.8635 36.6349 83.9202 36.6349C84.977 36.6349 85.5365 35.9718 85.5365 34.9772V31.1645H86.6554V34.9979C86.6554 36.5727 85.7437 37.6295 83.9202 37.6295C82.0761 37.6088 81.1851 36.552 81.1851 34.9979Z" fill="white"/>
<path d="M88.106 37.4845V31.1438H89.2249V36.5106H92.0223V37.4845H88.106Z" fill="white"/>
<path d="M92.8926 34.9979V31.1645H94.0115V34.9772C94.0115 35.9925 94.571 36.6349 95.6485 36.6349C96.7053 36.6349 97.2647 35.9718 97.2647 34.9772V31.1645H98.3837V34.9979C98.3837 36.5727 97.472 37.6295 95.6485 37.6295C93.7836 37.6088 92.8926 36.552 92.8926 34.9979Z" fill="white"/>
<path d="M103.978 37.4845L103.502 36.2619H100.601L100.124 37.4845H98.8604L101.347 31.1438H102.735L105.222 37.4845H103.978ZM102.051 32.2627L100.912 35.288H103.191L102.051 32.2627Z" fill="white"/>
<path d="M109.656 37.4845L108.247 35.1223H107.149V37.4845H106.03V31.1438H108.806C110.07 31.1438 110.879 31.9519 110.879 33.133C110.879 34.2727 110.133 34.8736 109.366 34.9979L110.92 37.4845H109.656ZM109.76 33.133C109.76 32.5321 109.304 32.1177 108.682 32.1177H107.169V34.1276H108.682C109.304 34.1484 109.76 33.7547 109.76 33.133Z" fill="white"/>
<path d="M112.101 37.4845V31.1438H114.878C116.204 31.1438 116.95 32.0555 116.95 33.133C116.95 34.2105 116.204 35.1223 114.878 35.1223H113.199V37.4845H112.101ZM115.81 33.133C115.81 32.5321 115.354 32.1177 114.733 32.1177H113.22V34.1276H114.733C115.354 34.1484 115.81 33.7547 115.81 33.133Z" fill="white"/>
<path d="M117.696 34.3349C117.696 32.4492 119.043 31.0609 120.928 31.0609C122.835 31.0609 124.181 32.4492 124.181 34.3349C124.181 36.2205 122.835 37.6088 120.928 37.6088C119.043 37.6088 117.696 36.2205 117.696 34.3349ZM123.042 34.3349C123.042 33.0294 122.213 32.0348 120.949 32.0348C119.664 32.0348 118.856 33.0087 118.856 34.3349C118.856 35.6403 119.664 36.6349 120.949 36.6349C122.213 36.6142 123.042 35.6196 123.042 34.3349Z" fill="white"/>
<path d="M129.755 37.4845V34.7286H126.461V37.4845H125.362V31.1438H126.481V33.7339H129.776V31.1438H130.895V37.4845H129.755Z" fill="white"/>
<path d="M132.035 34.3349C132.035 32.4492 133.382 31.0609 135.267 31.0609C137.173 31.0609 138.52 32.4492 138.52 34.3349C138.52 36.2205 137.173 37.6088 135.267 37.6088C133.382 37.6088 132.035 36.2205 132.035 34.3349ZM137.381 34.3349C137.381 33.0294 136.552 32.0348 135.288 32.0348C134.003 32.0348 133.195 33.0087 133.195 34.3349C133.195 35.6403 134.003 36.6349 135.288 36.6349C136.552 36.6142 137.381 35.6196 137.381 34.3349Z" fill="white"/>
<path d="M139.702 37.4845V31.1438H142.064C144.032 31.1438 145.379 32.4492 145.379 34.3141C145.379 36.179 144.032 37.4845 142.064 37.4845H139.702ZM144.24 34.3349C144.24 33.1123 143.473 32.1384 142.064 32.1384H140.821V36.5313H142.064C143.431 36.5106 144.24 35.516 144.24 34.3349Z" fill="white"/>
<path d="M146.125 36.925C146.125 36.5727 146.436 36.2619 146.788 36.2619C147.14 36.2619 147.451 36.5727 147.451 36.925C147.451 37.2773 147.14 37.5881 146.788 37.5881C146.436 37.5881 146.125 37.298 146.125 36.925Z" fill="white"/>
<path d="M148.446 34.3349C148.446 32.3871 149.896 31.0609 151.782 31.0609C153.067 31.0609 153.854 31.724 154.331 32.4907L153.377 32.9673C153.067 32.4492 152.466 32.0555 151.782 32.0555C150.518 32.0555 149.585 33.0087 149.585 34.3556C149.585 35.6817 150.518 36.6556 151.782 36.6556C152.466 36.6556 153.067 36.2619 153.377 35.7439L154.331 36.2205C153.854 36.9872 153.067 37.6502 151.782 37.6502C149.896 37.6088 148.446 36.2826 148.446 34.3349Z" fill="white"/>
<path d="M155.035 34.3349C155.035 32.4492 156.382 31.0609 158.268 31.0609C160.174 31.0609 161.521 32.4492 161.521 34.3349C161.521 36.2205 160.174 37.6088 158.268 37.6088C156.382 37.6088 155.035 36.2205 155.035 34.3349ZM160.381 34.3349C160.381 33.0294 159.552 32.0348 158.288 32.0348C157.004 32.0348 156.196 33.0087 156.196 34.3349C156.196 35.6403 157.004 36.6349 158.288 36.6349C159.552 36.6142 160.381 35.6196 160.381 34.3349Z" fill="white"/>
<path d="M168.172 37.4845V32.7808L166.224 37.4845H165.748L163.8 32.7808V37.4845H162.681V31.1438H164.256L165.976 35.3087L167.716 31.1438H169.291V37.4845H168.172Z" fill="white"/>
</svg>
